<?xml version="1.0" encoding="utf-8"?>
<!-- Generator: Adobe Illustrator 22.1.0, SVG Export Plug-In . SVG Version: 6.00 Build 0)  -->
<svg version="1.1" id="svg8" xmlns="http://www.w3.org/2000/svg" xmlns:xlink="http://www.w3.org/1999/xlink" x="0px" y="0px"
	 viewBox="0 0 581.2 151.3" style="enable-background:new 0 0 581.2 151.3;" xml:space="preserve">
<style type="text/css">
	.st0{fill:#FFFFFF;}
</style>
<title>logo_nm_1</title>
<path class="st0" d="M63.7,121.3h-7.5V78c0-10.1-1.4-17.4-4.3-22c-2.8-4.6-7.4-6.9-13.5-6.9c-3.3,0-6.7,0.6-9.8,1.8
	c-3.3,1.2-6.3,2.9-9,5.1c-2.8,2.2-5.3,4.8-7.3,7.7c-2.1,2.9-3.6,6.1-4.6,9.5v48.2H0.2V43.6h7v18.5c3.2-6,8-11,13.9-14.4
	c2.9-1.7,6.1-3.1,9.3-4c3.3-0.9,6.7-1.4,10.2-1.4c8.5,0,14.5,3,18,8.9s5.2,14.4,5.2,25.5L63.7,121.3z"/>
<path class="st0" d="M119,122.8c-5.2,0.1-10.4-1-15.2-3.2c-4.5-2.1-8.6-5.1-12-8.8c-3.4-3.7-6.2-8.1-8-12.8C80,88,80,77,83.9,67
	c1.9-4.7,4.6-9.1,8-12.9c3.4-3.7,7.5-6.7,12-8.8c4.7-2.2,9.8-3.3,15-3.2c5.2-0.1,10.3,1,15,3.2c4.5,2.1,8.6,5.1,12,8.8
	c3.5,3.7,6.3,8.1,8.1,12.9c5.9,14.9,2.8,31.9-8,43.8c-3.4,3.7-7.5,6.7-12,8.8C129.3,121.8,124.1,122.9,119,122.8z M88.4,82.9
	c0,4.4,0.8,8.8,2.4,12.9c1.5,3.9,3.7,7.5,6.5,10.5c2.7,3,6,5.4,9.7,7.1c7.5,3.5,16.1,3.5,23.6,0c3.7-1.8,7-4.2,9.7-7.3
	c2.8-3.1,5.1-6.8,6.6-10.7c1.6-4.2,2.4-8.6,2.4-13.1c0-4.4-0.8-8.8-2.4-12.9c-1.5-3.9-3.8-7.5-6.6-10.6c-2.7-3-6-5.5-9.7-7.3
	c-3.7-1.8-7.7-2.7-11.8-2.7c-4.1,0-8.1,0.9-11.8,2.7c-3.7,1.8-6.9,4.3-9.7,7.3c-2.8,3.2-5,6.9-6.6,10.8C89.3,74,88.4,78.4,88.4,82.9
	L88.4,82.9z"/>
<path class="st0" d="M173.2,84.1v-6.9h43.1v6.9H173.2z"/>
<path class="st0" d="M352.2,121.3h-7.5V78c0-9.9-1.5-17.2-4.6-21.8s-7.7-7-14-7c-3.1,0-6.2,0.6-9.1,1.8c-2.9,1.2-5.6,2.9-7.9,5
	c-2.4,2.2-4.5,4.8-6.2,7.6c-1.8,3.1-3.2,6.4-4.1,9.8v48h-7.5V78c0-10-1.5-17.3-4.5-21.9s-7.6-6.9-13.9-7c-3.1,0-6.1,0.6-9,1.7
	c-2.9,1.2-5.5,2.8-7.8,4.9c-2.5,2.2-4.6,4.8-6.4,7.6c-1.9,3-3.3,6.3-4.3,9.8v48.2h-7.6V43.6h7v18.5c2.9-5.9,7.2-10.9,12.6-14.7
	c5.1-3.5,11.1-5.3,17.2-5.2c6.6,0,11.9,1.9,16,5.8c4.2,4.1,6.8,9.5,7.3,15.3c7.4-14.1,17.6-21.1,30.5-21.1c8.5,0,14.5,3,18.2,9
	c3.6,6,5.5,14.4,5.5,25.3L352.2,121.3z"/>
<path class="st0" d="M407.4,122.8c-5.2,0.1-10.4-1-15.2-3.2c-4.5-2.1-8.6-5.1-12-8.8c-3.4-3.7-6.1-8.1-8-12.8
	c-1.9-4.9-2.9-10.1-2.8-15.4c0-10.5,3.9-20.6,10.9-28.4c3.4-3.7,7.5-6.7,12-8.8c4.7-2.2,9.8-3.3,15-3.2c5.2-0.1,10.3,1,15,3.2
	c4.5,2.1,8.6,5.1,12,8.8c3.5,3.7,6.3,8.1,8.1,12.8c5.9,14.9,2.8,31.9-8,43.8c-3.4,3.7-7.5,6.7-12,8.8
	C417.8,121.8,412.6,122.9,407.4,122.8z M376.9,82.9c0,4.4,0.8,8.8,2.4,12.9c1.5,3.9,3.7,7.5,6.5,10.5c2.7,3,6,5.4,9.7,7.1
	c7.5,3.5,16.1,3.5,23.6,0c3.7-1.8,7-4.2,9.7-7.3c2.8-3.1,5-6.8,6.6-10.7c1.6-4.2,2.4-8.6,2.4-13.1c0-4.4-0.8-8.8-2.4-12.9
	c-1.5-3.9-3.8-7.5-6.6-10.6c-2.7-3-6-5.5-9.7-7.3s-7.7-2.7-11.7-2.7c-4.1,0-8.1,0.9-11.8,2.7s-7,4.3-9.7,7.3
	c-2.8,3.2-5,6.9-6.6,10.8C377.7,74,376.9,78.4,376.9,82.9z"/>
<path class="st0" d="M500.2,50.3c-13.7,0.1-25.7,9.2-29.3,22.4v48.6h-7.5V43.6h7.2v19.1c2.5-5.2,6.1-9.8,10.7-13.4
	c4.1-3.3,9.1-5.4,14.3-5.9c1-0.1,1.9-0.2,2.7-0.2h2L500.2,50.3z"/>
<path class="st0" d="M543.5,122.8c-5.3,0-10.5-1-15.3-3.2c-4.6-2.1-8.8-5.1-12.2-8.8c-3.5-3.8-6.2-8.2-8.1-12.9
	c-2-5-3-10.3-2.9-15.7c0-5.3,1-10.6,2.9-15.5c1.9-4.7,4.6-9,8-12.7c3.4-3.6,7.5-6.6,12-8.6c9.7-4.2,20.6-4.2,30.3,0.1
	c4.6,2.1,8.7,5,12.1,8.7c3.4,3.7,6.1,8,7.9,12.7c1.9,4.9,2.9,10.1,2.8,15.3v1.9c0,0.5,0,1-0.2,1.4h-68.2c0.3,4.3,1.3,8.6,3.1,12.5
	c1.7,3.7,4,7.1,6.8,10c2.7,2.8,5.9,5,9.5,6.6s7.6,2.4,11.5,2.4c2.7,0,5.4-0.4,7.9-1.1s5-1.8,7.3-3.1c2.2-1.3,4.2-2.9,6-4.7
	c1.7-1.8,3.1-3.8,4.1-6.1l6.6,1.8c-1.1,2.8-2.8,5.5-4.9,7.7c-2.2,2.4-4.7,4.4-7.5,6.1c-2.9,1.7-6.1,3.1-9.3,4
	C550.6,122.4,547.1,122.9,543.5,122.8z M574,79.5c-0.2-4.3-1.3-8.6-3.1-12.6c-1.6-3.6-3.9-7-6.7-9.8c-2.7-2.7-5.9-4.9-9.5-6.4
	c-7.4-3.1-15.6-3.1-23,0c-3.5,1.5-6.8,3.7-9.5,6.4c-2.8,2.8-5,6.2-6.6,9.9c-1.7,4-2.7,8.2-2.9,12.5H574z"/>
</svg>
